<!--?xml version="1.0" standalone="no"?-->
<svg id="sw-js-blob-svg" viewBox="0 0 100 100"
    xmlns="http://www.w3.org/2000/svg" version="1.1">
    <defs>
        <linearGradient id="sw-gradient" x1="0" x2="1" y1="1" y2="0">
            <stop id="stop1" stop-color="rgba(38.157, 17.685, 51.299, 1)" offset="0%"></stop>
            <stop id="stop2" stop-color="rgba(190.796, 45.674, 224.335, 1)" offset="100%"></stop>
        </linearGradient>
    </defs>
    <path fill="url(#sw-gradient)" d="M17.3,-19.4C23.4,-15.4,30.1,-10.9,33.5,-4C37,2.9,37.3,12.3,32.8,17.7C28.2,23.1,18.8,24.4,10.1,27.6C1.3,30.8,-6.8,35.8,-14.1,34.8C-21.4,33.9,-28,26.9,-31.9,19C-35.7,11.1,-36.8,2.2,-34.1,-4.7C-31.4,-11.7,-24.8,-16.6,-18.4,-20.6C-12.1,-24.5,-6,-27.4,-0.2,-27.1C5.6,-26.8,11.1,-23.3,17.3,-19.4Z" width="100%" height="100%" transform="translate(50 50)" stroke-width="0" style="transition: all 0.3s ease 0s;" stroke="url(#sw-gradient)"></path>
</svg>